<?xml version="1.0" encoding="utf-8"?>
<!-- Generator: Adobe Illustrator 24.0.0, SVG Export Plug-In . SVG Version: 6.00 Build 0)  -->
<svg version="1.1" id="Layer_1" xmlns="http://www.w3.org/2000/svg" xmlns:xlink="http://www.w3.org/1999/xlink" x="0px" y="0px"
	 viewBox="0 0 792 252" style="enable-background:new 0 0 792 252;" xml:space="preserve">
<style type="text/css">
	.st0{fill:#00ADD8;}
	.st1{fill:#703187;}
</style>
<g>
	<path class="st0" d="M211,109.4l-86.7,0c-4.4,0-8.6,1.7-11.7,4.9c-1.5,1.5-2.6,3.2-3.5,5.1c-0.9,2.1-1.4,4.3-1.4,6.7l0,0h9.7v0
		c0,0,0,0.1,0,0.1l0-0.1l0,0c0.1-3.9,3.1-6.9,7-6.9h88C212,115.8,211.6,112.5,211,109.4z"/>
	<path class="st0" d="M124.2,47.4c0,0,15,0,40.3,0c-11.4-5.8-24.2-9.3-37.7-9.7l-2.6,0c-10.2,0-20.2,1.7-29.5,5
		c-0.1,0.1-0.3,0.1-0.4,0.1c-1.1,0.4-2.3,0.8-3.4,1.3c-0.2,0.1-0.5,0.2-0.7,0.3c-1,0.4-2,0.9-3.1,1.3c-0.3,0.1-0.6,0.3-0.9,0.4
		c-1,0.5-2,1-2.9,1.5c-0.3,0.2-0.6,0.3-0.9,0.5c-1,0.5-2,1.1-3,1.7c-0.2,0.1-0.4,0.2-0.6,0.4c-1.1,0.7-2.3,1.4-3.4,2.1
		c0,0,0,0-0.1,0.1c-1.2,0.8-2.4,1.6-3.5,2.5c0,0,0,0,0,0c-3.5,2.6-6.7,5.4-9.9,8.5C45.4,80,36.2,102.2,36,126l9.7,0
		c0.2-21,8.3-40.6,22.8-55.4C83.3,55.7,103.1,47.4,124.2,47.4z"/>
	<path class="st0" d="M124.3,65.3c0,0,25.2,0,64.1,0c-3.3-3.5-6.9-6.7-10.8-9.7l-53.3,0c-18.8,0-36.4,7.3-49.6,20.5
		C61.5,89.3,54.1,107.1,54,126l9.7,0c0.1-16.2,6.4-31.4,17.6-42.8C92.7,71.7,107.9,65.3,124.3,65.3z"/>
	<path class="st0" d="M124.3,83.2c0,0,32.2,0,77.2,0c-1.9-3.4-4-6.6-6.2-9.7l-71,0c-14,0-27.2,5.4-37,15.3
		c-9.9,9.9-15.3,23-15.5,37.1l9.7,0c0.1-11.4,4.5-22.1,12.5-30.1C101.9,87.7,112.7,83.2,124.3,83.2z"/>
	<path class="st0" d="M209,101.1c-1-3.3-2.1-6.5-3.5-9.7l-81.3,0c-9.2,0-17.8,3.6-24.3,10c-6.5,6.5-10.1,15.2-10.2,24.5l9.7,0
		c0.1-6.6,2.6-12.9,7.2-17.5c4.7-4.7,10.9-7.3,17.6-7.3C124.2,101.1,163.4,101.1,209,101.1z"/>
	<path class="st0" d="M107.6,126.3l0-0.3h0C107.6,126.1,107.6,126.2,107.6,126.3z"/>
</g>
<g>
	<path class="st1" d="M124.3,168.8c-11.5,0-22.3-4.5-30.4-12.6c-7.9-8-12.3-18.7-12.4-30.1h-9.7c0.1,14.1,5.6,27.3,15.5,37.1
		c9.9,9.9,23,15.3,37,15.3l71,0c2.3-3.1,4.4-6.3,6.2-9.7C156.4,168.7,124.3,168.8,124.3,168.8z"/>
	<path class="st1" d="M106.6,143.5c-4.6-4.7-7.2-10.9-7.2-17.5l-9.7,0c0.1,9.3,3.7,18,10.2,24.5c6.5,6.5,15.1,10,24.3,10l81.3,0
		c1.3-3.1,2.5-6.4,3.5-9.7c-45.6,0-84.8,0-84.8,0C117.5,150.9,111.3,148.3,106.6,143.5z"/>
	<path class="st1" d="M81.3,168.8C70,157.4,63.8,142.2,63.6,126l-9.7,0c0.2,18.9,7.5,36.6,20.8,49.9c13.2,13.2,30.8,20.5,49.5,20.4
		l53.3,0c3.9-2.9,7.5-6.2,10.8-9.7c-39,0-64.1,0-64.1,0C107.9,186.7,92.7,180.3,81.3,168.8z"/>
	<path class="st1" d="M68.5,181.4C54,166.6,45.9,147,45.7,126l-9.7,0c0.2,23.8,9.4,45.9,26,62.6c3.1,3.1,6.4,5.9,9.8,8.5
		c0,0,0,0,0,0c1.1,0.9,2.3,1.7,3.5,2.5c0,0,0.1,0,0.1,0.1c1.1,0.7,2.2,1.4,3.4,2.1c0.2,0.1,0.4,0.2,0.6,0.3c1,0.6,2,1.2,3,1.7
		c0.3,0.2,0.6,0.3,0.9,0.4c1,0.5,1.9,1,2.9,1.5c0.3,0.1,0.6,0.3,0.9,0.4c1,0.5,2,0.9,3.1,1.4c0.3,0.1,0.5,0.2,0.7,0.3
		c1.1,0.5,2.3,0.9,3.4,1.3c0.1,0,0.3,0.1,0.4,0.1c9.3,3.3,19.3,5,29.5,5l2.6,0c13.6-0.4,26.4-3.8,37.7-9.7c-25.3,0-40.3,0-40.3,0
		C103.1,204.6,83.3,196.3,68.5,181.4z"/>
	<path class="st1" d="M124.3,132.9c-1.9,0-3.6-0.7-4.9-2c-1.3-1.2-2-3-2.1-4.9c0,0,0-0.1,0-0.1v0h-9.7l0,0.3c0,1.6,0.4,3.2,0.8,4.7
		c0.2,0.6,0.3,1.2,0.6,1.7c0.8,1.9,2,3.6,3.4,5.1c3.1,3.1,7.3,4.9,11.7,4.8l86.7,0c0.6-3.2,1-6.4,1.3-9.7L124.3,132.9z"/>
</g>
<g>
	<path class="st0" d="M235.4,78.2c0-4.9,0.9-9.7,2.6-14.6c1.7-4.8,4.2-9.2,7.5-13c3.3-3.8,7.4-7,12.2-9.3c4.8-2.4,10.2-3.5,16.3-3.5
		c7.2,0,13.4,1.6,18.6,4.9c5.2,3.3,9,7.5,11.5,12.8l-8.1,5.3c-1.2-2.6-2.7-4.8-4.4-6.5c-1.7-1.7-3.6-3.2-5.6-4.2
		c-2-1.1-4.1-1.8-6.2-2.3c-2.1-0.5-4.2-0.7-6.3-0.7c-4.5,0-8.5,0.9-11.9,2.8c-3.5,1.9-6.4,4.3-8.7,7.3c-2.4,3-4.1,6.4-5.3,10.2
		c-1.2,3.8-1.8,7.6-1.8,11.4c0,4.3,0.7,8.3,2.1,12.2c1.4,3.8,3.4,7.3,5.9,10.2c2.5,3,5.5,5.3,8.9,7.1c3.4,1.8,7.2,2.6,11.2,2.6
		c2.1,0,4.3-0.3,6.6-0.8c2.2-0.5,4.4-1.4,6.5-2.6c2.1-1.2,4-2.7,5.8-4.5c1.8-1.8,3.3-3.9,4.4-6.5l8.6,4.7c-1.3,3-3.1,5.7-5.4,8.1
		c-2.3,2.3-5,4.3-7.9,5.9c-2.9,1.6-6,2.8-9.3,3.7c-3.3,0.8-6.5,1.3-9.6,1.3c-5.6,0-10.7-1.2-15.3-3.7c-4.6-2.4-8.7-5.6-12.1-9.5
		c-3.4-3.9-6-8.4-7.9-13.4C236.4,88.5,235.4,83.4,235.4,78.2z"/>
	<path class="st0" d="M342.1,38.2h8.7l33.1,81.1h-11l-9.6-23.8h-34l-9.5,23.8h-11L342.1,38.2z M361.1,87.6l-14.6-37.5l-15.1,37.5
		H361.1z"/>
	<path class="st0" d="M405.1,57.4v61.9h-10.3V38.2h8l50.3,63.2V38.3h10.3v81h-8.7L405.1,57.4z"/>
	<path class="st0" d="M476.6,78.2c0-4.9,0.9-9.7,2.6-14.6c1.7-4.8,4.2-9.2,7.5-13c3.3-3.8,7.4-7,12.2-9.3c4.8-2.4,10.2-3.5,16.3-3.5
		c7.2,0,13.4,1.6,18.6,4.9c5.2,3.3,9,7.5,11.5,12.8l-8.1,5.3c-1.2-2.6-2.7-4.8-4.4-6.5c-1.7-1.7-3.6-3.2-5.6-4.2
		c-2-1.1-4.1-1.8-6.2-2.3c-2.1-0.5-4.2-0.7-6.3-0.7c-4.5,0-8.5,0.9-11.9,2.8c-3.5,1.9-6.4,4.3-8.7,7.3c-2.4,3-4.1,6.4-5.3,10.2
		c-1.2,3.8-1.8,7.6-1.8,11.4c0,4.3,0.7,8.3,2.1,12.2c1.4,3.8,3.4,7.3,5.9,10.2c2.5,3,5.5,5.3,8.9,7.1c3.4,1.8,7.2,2.6,11.2,2.6
		c2.1,0,4.3-0.3,6.6-0.8s4.4-1.4,6.5-2.6c2.1-1.2,4-2.7,5.8-4.5c1.8-1.8,3.3-3.9,4.4-6.5l8.6,4.7c-1.3,3-3.1,5.7-5.4,8.1
		c-2.3,2.3-5,4.3-7.9,5.9c-2.9,1.6-6,2.8-9.3,3.7c-3.3,0.8-6.5,1.3-9.6,1.3c-5.6,0-10.7-1.2-15.3-3.7c-4.6-2.4-8.7-5.6-12.1-9.5
		c-3.4-3.9-6-8.4-7.9-13.4C477.5,88.5,476.6,83.4,476.6,78.2z"/>
	<path class="st0" d="M614.8,110.2v9.1h-55.1V38.2h54v9.1H570v26.3h38v8.6h-38v28H614.8z"/>
	<path class="st0" d="M628.8,119.3V38.2h34.7c3.6,0,6.9,0.7,9.9,2.2c3,1.5,5.6,3.5,7.8,5.9c2.2,2.5,3.9,5.3,5.1,8.3
		c1.2,3.1,1.8,6.2,1.8,9.4c0,2.8-0.4,5.5-1.2,8.2c-0.8,2.6-1.9,5-3.4,7.1c-1.5,2.1-3.3,4-5.4,5.5c-2.1,1.5-4.4,2.6-7,3.3l19.6,31.1
		h-11.7l-18.5-29.1h-21.5v29.1H628.8z M639.1,81.1h24.6c2.1,0,4.1-0.5,5.8-1.4s3.2-2.2,4.4-3.7c1.2-1.6,2.2-3.4,2.9-5.4
		c0.7-2.1,1-4.2,1-6.4c0-2.3-0.4-4.4-1.2-6.5c-0.8-2-1.9-3.8-3.2-5.4s-2.9-2.8-4.7-3.7c-1.8-0.9-3.7-1.3-5.7-1.3h-23.9V81.1z"/>
</g>
<path class="st1" d="M301.7,141.4h-28v72h-10.3v-72h-28v-9.1h66.3V141.4z"/>
<path class="st1" d="M313.4,213.4v-81.1h34.7c3.6,0,6.9,0.7,9.9,2.2c3,1.5,5.6,3.5,7.8,5.9c2.2,2.5,3.9,5.3,5.1,8.3
	c1.2,3.1,1.8,6.2,1.8,9.4c0,2.8-0.4,5.5-1.2,8.2c-0.8,2.6-1.9,5-3.4,7.1c-1.5,2.1-3.3,4-5.4,5.5c-2.1,1.5-4.4,2.6-7,3.3l19.6,31.1
	h-11.7l-18.5-29.1h-21.5v29.1H313.4z M323.6,175.1h24.6c2.1,0,4.1-0.5,5.8-1.4c1.7-0.9,3.2-2.2,4.4-3.7c1.2-1.6,2.2-3.4,2.9-5.4
	c0.7-2.1,1-4.2,1-6.4c0-2.3-0.4-4.4-1.2-6.5c-0.8-2-1.9-3.8-3.2-5.4s-2.9-2.8-4.7-3.7c-1.8-0.9-3.7-1.3-5.7-1.3h-23.9V175.1z"/>
<path class="st1" d="M388.4,213.4v-81.1h10.3v81.1H388.4z"/>
<path class="st1" d="M442.8,132.2h8.7l33.1,81.1h-11l-9.6-23.8h-34l-9.5,23.8h-11L442.8,132.2z M461.8,181.6l-14.6-37.5l-15.1,37.5
	H461.8z"/>
<path class="st1" d="M495.5,213.4v-81.1h10.3v72H551v9.1H495.5z"/>
<path class="st1" d="M609.1,149.3c-0.9-1.1-2.1-2.1-3.7-3.1c-1.5-1-3.2-1.9-5.1-2.7c-1.9-0.8-4-1.4-6.2-1.9c-2.2-0.5-4.6-0.7-7-0.7
	c-6.3,0-10.9,1.2-13.9,3.5s-4.4,5.6-4.4,9.7c0,2.2,0.4,4,1.3,5.5c0.8,1.5,2.2,2.7,3.9,3.7c1.8,1,4,1.9,6.7,2.7
	c2.7,0.8,5.8,1.6,9.5,2.4c4.2,0.9,8,2,11.4,3.1c3.4,1.2,6.3,2.6,8.7,4.4c2.4,1.8,4.2,3.9,5.5,6.4c1.3,2.5,1.9,5.6,1.9,9.3
	c0,3.9-0.8,7.3-2.3,10.1s-3.6,5.2-6.2,7.1c-2.6,1.9-5.7,3.2-9.3,4.1c-3.6,0.9-7.5,1.3-11.7,1.3c-6.2,0-12.2-1-17.8-2.9
	c-5.6-1.9-10.7-4.8-15.3-8.5l4.9-8.7c1.2,1.3,2.8,2.6,4.7,3.9c1.9,1.3,4.2,2.5,6.6,3.5c2.5,1,5.1,1.9,8,2.5s5.8,1,9,1
	c5.8,0,10.3-1,13.5-3.1c3.2-2.1,4.8-5.1,4.8-9.3c0-2.3-0.5-4.2-1.5-5.8c-1-1.6-2.5-2.9-4.5-4.1c-2-1.1-4.4-2.2-7.4-3
	s-6.3-1.8-10-2.7c-4.1-1-7.7-2.1-10.9-3.2c-3.1-1.1-5.7-2.5-7.8-4.1c-2.1-1.6-3.7-3.5-4.7-5.8c-1.1-2.3-1.6-5-1.6-8.2
	c0-3.9,0.7-7.3,2.2-10.3c1.4-3,3.5-5.5,6.1-7.5c2.6-2.1,5.7-3.6,9.3-4.6c3.6-1,7.5-1.5,11.7-1.5c5.5,0,10.4,0.8,14.9,2.5
	c4.4,1.7,8.3,3.9,11.8,6.7L609.1,149.3z"/>
<path class="st1" d="M655.1,213.4v-81.1h10.3v81.1H655.1z"/>
<path class="st1" d="M717.7,213.9c-5.7,0-10.9-1.2-15.6-3.5c-4.7-2.3-8.7-5.4-12.1-9.3c-3.4-3.8-5.9-8.2-7.8-13.2
	c-1.8-4.9-2.7-10-2.7-15.2c0-5.4,1-10.6,2.9-15.5c1.9-4.9,4.6-9.3,8.1-13.1c3.4-3.8,7.5-6.8,12.2-9.1c4.7-2.2,9.8-3.4,15.3-3.4
	c5.7,0,10.9,1.2,15.5,3.6c4.6,2.4,8.6,5.5,12,9.4c3.4,3.9,5.9,8.3,7.8,13.2c1.8,4.9,2.7,9.9,2.7,15c0,5.4-1,10.6-2.9,15.5
	c-1.9,5-4.6,9.3-8,13.1c-3.4,3.8-7.4,6.8-12.1,9S723.2,213.9,717.7,213.9z M690,172.8c0,4.1,0.7,8.1,2,11.9
	c1.3,3.8,3.2,7.3,5.7,10.2c2.4,3,5.4,5.3,8.8,7.1c3.4,1.7,7.2,2.6,11.4,2.6c4.3,0,8.2-0.9,11.7-2.8c3.4-1.9,6.3-4.3,8.7-7.3
	c2.4-3,4.2-6.4,5.5-10.2c1.3-3.8,1.9-7.7,1.9-11.5c0-4.1-0.7-8.1-2-11.9s-3.2-7.2-5.7-10.2c-2.5-2.9-5.4-5.3-8.8-7
	c-3.4-1.7-7.1-2.6-11.3-2.6c-4.3,0-8.2,0.9-11.7,2.7c-3.4,1.8-6.3,4.2-8.7,7.2c-2.4,3-4.2,6.4-5.5,10.2
	C690.6,165,690,168.8,690,172.8z"/>
<rect x="627.5" y="201.5" class="st1" width="11.9" height="11.9"/>
</svg>
