<svg id="Layer_1" data-name="Layer 1" xmlns="http://www.w3.org/2000/svg" xmlns:xlink="http://www.w3.org/1999/xlink" viewBox="0 0 476.21 45.82"><defs><style>.cls-1{fill:#00add8;}.cls-2{fill:#703387;}</style></defs><image width="3799" height="611" transform="translate(191.33) scale(0.07)" xlink:href="../../../../../../../Dropbox%20(HMS)/HiTS%20Shared/HiTS_Logos/Harvard-MIT%20CRS%20Logo/CRS%20logo_web10.2018_lrg.png"/><path class="cls-1" d="M51.63,24.66H30.8A3.9,3.9,0,0,0,28,25.84a4.33,4.33,0,0,0-.84,1.23,4.09,4.09,0,0,0-.33,1.6h2.33v0h0A1.66,1.66,0,0,1,30.83,27H52C51.87,26.2,51.77,25.41,51.63,24.66Z" transform="translate(-9.6 -7.44)"/><path class="cls-1" d="M30.78,9.77h9.68a21.44,21.44,0,0,0-9-2.33h-.63a21.33,21.33,0,0,0-7.09,1.2s-.07,0-.09,0c-.27.09-.55.19-.82.31l-.17.07c-.24.1-.48.22-.74.31a1.47,1.47,0,0,1-.22.1c-.24.12-.48.24-.69.36s-.15.07-.22.12c-.24.12-.48.26-.72.41a.42.42,0,0,0-.14.09l-.82.51,0,0c-.29.19-.58.39-.85.6h0a25.28,25.28,0,0,0-2.37,2,21.37,21.37,0,0,0-6.22,15h2.33A19.14,19.14,0,0,1,17.4,15.34,18.79,18.79,0,0,1,30.78,9.77Z" transform="translate(-9.6 -7.44)"/><path class="cls-1" d="M30.8,14.07H46.2a22.16,22.16,0,0,0-2.59-2.33H30.8a16.7,16.7,0,0,0-11.91,4.93,17,17,0,0,0-5,12h2.33a14.72,14.72,0,0,1,4.23-10.28A14.41,14.41,0,0,1,30.8,14.07Z" transform="translate(-9.6 -7.44)"/><path class="cls-1" d="M30.8,18.37H49.35A26.39,26.39,0,0,0,47.86,16H30.8a12.4,12.4,0,0,0-8.88,3.68,12.71,12.71,0,0,0-3.73,8.91h2.33a10.31,10.31,0,0,1,3-7.23A10.05,10.05,0,0,1,30.8,18.37Z" transform="translate(-9.6 -7.44)"/><path class="cls-1" d="M51.15,22.67a20.29,20.29,0,0,0-.84-2.33H30.78a8.28,8.28,0,0,0-5.84,2.4,8.42,8.42,0,0,0-2.45,5.89h2.33a6.11,6.11,0,0,1,1.73-4.21,5.92,5.92,0,0,1,4.23-1.75Z" transform="translate(-9.6 -7.44)"/><path class="cls-1" d="M26.79,28.72v-.07h0Z" transform="translate(-9.6 -7.44)"/><path class="cls-2" d="M30.8,38.93a10.26,10.26,0,0,1-7.3-3,10.41,10.41,0,0,1-3-7.23H18.19a12.63,12.63,0,0,0,3.73,8.92,12.48,12.48,0,0,0,8.88,3.67H47.86a17.71,17.71,0,0,0,1.49-2.33C38.52,38.91,30.8,38.93,30.8,38.93Z" transform="translate(-9.6 -7.44)"/><path class="cls-2" d="M26.55,32.85a6,6,0,0,1-1.73-4.2H22.49a8.45,8.45,0,0,0,2.45,5.89,8.2,8.2,0,0,0,5.84,2.4H50.31c.31-.75.6-1.54.84-2.33H30.78A5.73,5.73,0,0,1,26.55,32.85Z" transform="translate(-9.6 -7.44)"/><path class="cls-2" d="M20.48,38.93a14.74,14.74,0,0,1-4.26-10.28H13.89a17.12,17.12,0,0,0,5,12,16.62,16.62,0,0,0,11.89,4.9h12.8a20.59,20.59,0,0,0,2.6-2.33H30.78A14.3,14.3,0,0,1,20.48,38.93Z" transform="translate(-9.6 -7.44)"/><path class="cls-2" d="M17.4,42a19.12,19.12,0,0,1-5.47-13.31H9.6a21.34,21.34,0,0,0,6.24,15,26.39,26.39,0,0,0,2.35,2h0a10,10,0,0,0,.85.6,0,0,0,0,1,0,0c.26.17.53.34.82.51l.14.07c.24.14.48.29.72.41a.6.6,0,0,0,.22.09l.69.36c.08,0,.15.08.22.1l.74.34a.54.54,0,0,1,.17.07c.27.12.55.22.82.31l.09,0a21.33,21.33,0,0,0,7.09,1.2h.63a21,21,0,0,0,9.05-2.33H30.78A18.65,18.65,0,0,1,17.4,42Z" transform="translate(-9.6 -7.44)"/><path class="cls-2" d="M30.8,30.31a1.63,1.63,0,0,1-1.17-.48,1.76,1.76,0,0,1-.51-1.18v0H26.79v.07a4.32,4.32,0,0,0,.2,1.13,1.8,1.8,0,0,0,.14.41A4.16,4.16,0,0,0,28,31.46a3.8,3.8,0,0,0,2.81,1.15H51.58a21.79,21.79,0,0,0,.31-2.33Z" transform="translate(-9.6 -7.44)"/><path class="cls-1" d="M57.49,17.17a10.58,10.58,0,0,1,.63-3.51,9.36,9.36,0,0,1,1.8-3.12,9,9,0,0,1,2.93-2.23,8.54,8.54,0,0,1,3.91-.84,8.19,8.19,0,0,1,4.47,1.17A7.24,7.24,0,0,1,74,11.72L72.05,13A5.49,5.49,0,0,0,71,11.43a5.35,5.35,0,0,0-1.35-1,6,6,0,0,0-1.48-.55,6.56,6.56,0,0,0-1.52-.17,5.87,5.87,0,0,0-2.86.67,6.5,6.5,0,0,0-2.09,1.76,7.51,7.51,0,0,0-1.27,2.45A8.94,8.94,0,0,0,60,17.31a8.63,8.63,0,0,0,.5,2.93,7.92,7.92,0,0,0,1.42,2.45,6.94,6.94,0,0,0,2.14,1.71,5.69,5.69,0,0,0,2.69.62,7.47,7.47,0,0,0,1.58-.19,5.59,5.59,0,0,0,1.56-.62,6.55,6.55,0,0,0,1.4-1.08,4.92,4.92,0,0,0,1-1.56l2.07,1.12a6.46,6.46,0,0,1-1.3,1.95,8.83,8.83,0,0,1-1.89,1.42A10.68,10.68,0,0,1,69,27a9.91,9.91,0,0,1-2.3.31A7.59,7.59,0,0,1,63,26.37a10.25,10.25,0,0,1-2.91-2.28,10.59,10.59,0,0,1-1.89-3.22A10.46,10.46,0,0,1,57.49,17.17Z" transform="translate(-9.6 -7.44)"/><path class="cls-1" d="M83.12,7.56h2.09l8,19.48H90.52l-2.31-5.72H80.05L77.76,27H75.12Zm4.56,11.87-3.5-9-3.63,9Z" transform="translate(-9.6 -7.44)"/><path class="cls-1" d="M98.25,12.17V27H95.78V7.56H97.7l12.08,15.18V7.59h2.48V27h-2.09Z" transform="translate(-9.6 -7.44)"/><path class="cls-1" d="M115.43,17.17a10.56,10.56,0,0,1,.62-3.51,9.71,9.71,0,0,1,1.8-3.12,9.05,9.05,0,0,1,2.93-2.23,8.58,8.58,0,0,1,3.92-.84,8.19,8.19,0,0,1,4.47,1.17,7.3,7.3,0,0,1,2.76,3.08L130,13a5.68,5.68,0,0,0-1-1.56,5.35,5.35,0,0,0-1.35-1,6,6,0,0,0-1.49-.55,6.48,6.48,0,0,0-1.51-.17,5.87,5.87,0,0,0-2.86.67,6.4,6.4,0,0,0-2.09,1.76,7.15,7.15,0,0,0-1.27,2.45,9,9,0,0,0-.44,2.73,8.4,8.4,0,0,0,.51,2.93,7.72,7.72,0,0,0,1.42,2.45A7,7,0,0,0,122,24.4a5.72,5.72,0,0,0,2.69.62,7.49,7.49,0,0,0,1.59-.19,5.36,5.36,0,0,0,1.56-.62,6.76,6.76,0,0,0,1.39-1.08,4.79,4.79,0,0,0,1.06-1.56l2.07,1.12a6.86,6.86,0,0,1-1.3,1.95,8.65,8.65,0,0,1-1.9,1.42,10.59,10.59,0,0,1-2.23.89,10,10,0,0,1-2.31.31,7.55,7.55,0,0,1-3.67-.89A10.11,10.11,0,0,1,118,24.09a10.62,10.62,0,0,1-1.9-3.22A10,10,0,0,1,115.43,17.17Z" transform="translate(-9.6 -7.44)"/><path class="cls-1" d="M148.62,24.86V27H135.39V7.56h13V9.75h-10.5v6.31H147v2.07h-9.13v6.73Z" transform="translate(-9.6 -7.44)"/><path class="cls-1" d="M152,27V7.56h8.34a5.26,5.26,0,0,1,2.38.53,6.39,6.39,0,0,1,1.87,1.42,6.88,6.88,0,0,1,1.23,2,6.38,6.38,0,0,1,.43,2.26,7,7,0,0,1-.29,2,5.82,5.82,0,0,1-.82,1.7,5.58,5.58,0,0,1-1.29,1.32,5.06,5.06,0,0,1-1.69.8L166.85,27H164l-4.44-7h-5.17v7H152Zm2.48-9.17h5.91a3,3,0,0,0,1.39-.34,3.5,3.5,0,0,0,1.06-.89,4.49,4.49,0,0,0,.69-1.3,4.66,4.66,0,0,0,.24-1.53,4.27,4.27,0,0,0-.28-1.56,5.25,5.25,0,0,0-.77-1.3,3.46,3.46,0,0,0-1.13-.89,3,3,0,0,0-1.37-.31h-5.74v8.12Z" transform="translate(-9.6 -7.44)"/><path class="cls-2" d="M73.42,32.35H66.69V49.64H64.22V32.35H57.49V30.16H73.42Z" transform="translate(-9.6 -7.44)"/><path class="cls-2" d="M76.23,49.64V30.16h8.33a5.23,5.23,0,0,1,2.38.53,6.39,6.39,0,0,1,1.87,1.42,6.88,6.88,0,0,1,1.23,2,6.17,6.17,0,0,1,.43,2.26,7,7,0,0,1-.29,2A5.64,5.64,0,0,1,89.36,40a5.77,5.77,0,0,1-1.29,1.32,5.29,5.29,0,0,1-1.68.79l4.7,7.47H88.28l-4.44-7H78.68v7H76.23Zm2.45-9.2h5.9a3.07,3.07,0,0,0,1.4-.33,3.34,3.34,0,0,0,1-.89,4.77,4.77,0,0,0,.7-1.3A4.71,4.71,0,0,0,88,36.39a4.17,4.17,0,0,0-.29-1.57,4.65,4.65,0,0,0-.77-1.29,3.2,3.2,0,0,0-1.12-.89,3,3,0,0,0-1.37-.31H78.68v8.11Z" transform="translate(-9.6 -7.44)"/><path class="cls-2" d="M94.24,49.64V30.16h2.47V49.64Z" transform="translate(-9.6 -7.44)"/><path class="cls-2" d="M107.31,30.14h2.09l7.95,19.48h-2.64L112.4,43.9h-8.17L102,49.62H99.31ZM111.87,42l-3.51-9-3.62,9Z" transform="translate(-9.6 -7.44)"/><path class="cls-2" d="M120,49.64V30.16h2.47v17.3H133.3v2.18Z" transform="translate(-9.6 -7.44)"/><path class="cls-2" d="M147.25,34.25a3.26,3.26,0,0,0-.89-.75,8.21,8.21,0,0,0-1.22-.65,9.27,9.27,0,0,0-1.49-.45,7.72,7.72,0,0,0-1.68-.17,5.46,5.46,0,0,0-3.34.84,2.78,2.78,0,0,0-1.06,2.33,2.55,2.55,0,0,0,.31,1.32,2.45,2.45,0,0,0,.94.89,7.78,7.78,0,0,0,1.61.65c.65.19,1.39.38,2.28.58a27.41,27.41,0,0,1,2.74.74,7.58,7.58,0,0,1,2.09,1.06,4.37,4.37,0,0,1,1.32,1.53,4.86,4.86,0,0,1,.46,2.24,4.86,4.86,0,0,1-2,4.13,6.18,6.18,0,0,1-2.24,1,11.35,11.35,0,0,1-2.81.32,13.14,13.14,0,0,1-4.27-.7,12.08,12.08,0,0,1-3.68-2L135.46,45a7.11,7.11,0,0,0,1.13.94,9,9,0,0,0,1.58.84,12,12,0,0,0,1.92.6,10.84,10.84,0,0,0,2.17.24,5.84,5.84,0,0,0,3.24-.75,2.46,2.46,0,0,0,1.15-2.23,2.6,2.6,0,0,0-.36-1.4,3.14,3.14,0,0,0-1.08-1,7.92,7.92,0,0,0-1.78-.72c-.72-.19-1.51-.43-2.4-.65s-1.85-.5-2.62-.77a6.84,6.84,0,0,1-1.87-1,3.46,3.46,0,0,1-1.13-1.4,4.56,4.56,0,0,1-.38-2,5.44,5.44,0,0,1,.52-2.47,5,5,0,0,1,1.47-1.8,6,6,0,0,1,2.23-1.11,10.55,10.55,0,0,1,2.81-.36,10.15,10.15,0,0,1,3.58.6,10.68,10.68,0,0,1,2.84,1.61Z" transform="translate(-9.6 -7.44)"/><path class="cls-2" d="M158.3,49.64V30.16h2.48V49.64Z" transform="translate(-9.6 -7.44)"/><path class="cls-2" d="M173.34,49.76a8.33,8.33,0,0,1-3.75-.84,9.09,9.09,0,0,1-2.91-2.23,10.14,10.14,0,0,1-1.87-3.17,10.6,10.6,0,0,1-.65-3.65,10.12,10.12,0,0,1,.7-3.72A9.89,9.89,0,0,1,166.8,33a9.78,9.78,0,0,1,2.93-2.19,8.58,8.58,0,0,1,3.68-.81,7.88,7.88,0,0,1,3.72.86A9.79,9.79,0,0,1,180,33.12a10.74,10.74,0,0,1,1.87,3.17,10.45,10.45,0,0,1,.65,3.6,10.21,10.21,0,0,1-.7,3.73,9.93,9.93,0,0,1-1.92,3.14A8.89,8.89,0,0,1,177,48.92,8.56,8.56,0,0,1,173.34,49.76Zm-6.66-9.87a8.85,8.85,0,0,0,.48,2.86,7.64,7.64,0,0,0,1.37,2.45,6.78,6.78,0,0,0,2.12,1.71,6.13,6.13,0,0,0,2.74.62,5.86,5.86,0,0,0,2.81-.67,7.24,7.24,0,0,0,2.09-1.76,8.25,8.25,0,0,0,1.32-2.45,8.58,8.58,0,0,0,.45-2.76,8.94,8.94,0,0,0-.48-2.86,7.66,7.66,0,0,0-1.37-2.45,6.88,6.88,0,0,0-2.11-1.68,6.32,6.32,0,0,0-5.52,0,6.48,6.48,0,0,0-2.09,1.73,8.63,8.63,0,0,0-1.81,5.23Z" transform="translate(-9.6 -7.44)"/><rect class="cls-2" x="142.08" y="39.34" width="2.86" height="2.86"/></svg>